HIERARCHY
ROOT Hips
{
  OFFSET 48.486 94.1833 11.641
  CHANNELS 6 Xposition Yposition Zposition Zrotation Xrotation Yrotation
  JOINT spine
  {
    OFFSET 0 7.80059 0.448573
    CHANNELS 3 Zrotation Xrotation Yrotation
    JOINT spine1
    {
      OFFSET 0 10.1364 0
      CHANNELS 3 Zrotation Xrotation Yrotation
      JOINT spine2
      {
        OFFSET 0 9.71251 0
        CHANNELS 3 Zrotation Xrotation Yrotation
        JOINT Neck
        {
          OFFSET 0 24.9361 1.18887
          CHANNELS 3 Zrotation Xrotation Yrotation
          JOINT Head
          {
            OFFSET 0 7.53384 0
            CHANNELS 3 Zrotation Xrotation Yrotation
            End Site
            {
              OFFSET 0 18.2361 -6.01402
            }
          }
        }
        JOINT RightShoulder
        {
          OFFSET -4.08965 10.4888 -0.569457
          CHANNELS 3 Zrotation Xrotation Yrotation
          JOINT RightArm
          {
            OFFSET 0 13.757 0
            CHANNELS 3 Zrotation Xrotation Yrotation
            JOINT RightArmRoll
            {
              OFFSET 0 6.94478 0
              CHANNELS 3 Zrotation Xrotation Yrotation
              JOINT RightForeArm
              {
                OFFSET 0 20.2277 0
                CHANNELS 3 Zrotation Xrotation Yrotation
                JOINT RightForeArmRoll
                {
                  OFFSET 0 7.79312 0
                  CHANNELS 3 Zrotation Xrotation Yrotation
                  JOINT RightHand
                  {
                    OFFSET 0 15.6391 0
                    CHANNELS 3 Zrotation Xrotation Yrotation
                    End Site
                    {
                      OFFSET 0 0 0
                    }
                  }
                }
              }
            }
          }
        }
        JOINT LeftShoulder
        {
          OFFSET 4.08965 10.4888 -0.569457
          CHANNELS 3 Zrotation Xrotation Yrotation
          JOINT LeftArm
          {
            OFFSET 0 13.757 0
            CHANNELS 3 Zrotation Xrotation Yrotation
            JOINT LeftArmRoll
            {
              OFFSET 0 6.94478 0
              CHANNELS 3 Zrotation Xrotation Yrotation
              JOINT LeftForeArm
              {
                OFFSET 0 20.2277 0
                CHANNELS 3 Zrotation Xrotation Yrotation
                JOINT LeftForeArmRoll
                {
                  OFFSET 0 7.79312 0
                  CHANNELS 3 Zrotation Xrotation Yrotation
                  JOINT LeftHand
                  {
                    OFFSET 0 15.6391 0
                    CHANNELS 3 Zrotation Xrotation Yrotation
                    End Site
                    {
                      OFFSET 0 0 0
                    }
                  }
                }
              }
            }
          }
        }
      }
    }
  }
  JOINT RightUpLeg
  {
    OFFSET -6.91416 -1.26788 -1.06358
    CHANNELS 3 Zrotation Xrotation Yrotation
    JOINT RightUpLegRoll
    {
      OFFSET 0 18.3378 0
      CHANNELS 3 Zrotation Xrotation Yrotation
      JOINT RightLeg
      {
        OFFSET 0 -22.7085 0
        CHANNELS 3 Zrotation Xrotation Yrotation
        JOINT RightLegRoll
        {
          OFFSET 0 22.7828 0
          CHANNELS 3 Zrotation Xrotation Yrotation
          JOINT RightFoot
          {
            OFFSET 0 18.9629 0
            CHANNELS 3 Zrotation Xrotation Yrotation
            JOINT RightToeBase
            {
              OFFSET 0 15.852 0
              CHANNELS 3 Zrotation Xrotation Yrotation
              End Site
              {
                OFFSET 0.00671906 7.67701 -0.884893
              }
            }
          }
        }
      }
    }
  }
  JOINT LeftUpLeg
  {
    OFFSET 6.91416 -1.26788 -1.06358
    CHANNELS 3 Zrotation Xrotation Yrotation
    JOINT LeftUpLegRoll
    {
      OFFSET 0 18.3379 0
      CHANNELS 3 Zrotation Xrotation Yrotation
      JOINT LeftLeg
      {
        OFFSET 0 22.7084 0
        CHANNELS 3 Zrotation Xrotation Yrotation
        JOINT LeftLegRoll
        {
          OFFSET 0 22.9934 0
          CHANNELS 3 Zrotation Xrotation Yrotation
          JOINT LeftFoot
          {
            OFFSET 0 18.7522 0
            CHANNELS 3 Zrotation Xrotation Yrotation
            JOINT LeftToeBase
            {
              OFFSET 0 15.852 0
              CHANNELS 3 Zrotation Xrotation Yrotation
              End Site
              {
                OFFSET -0.030112 7.67701 -0.884893
              }
            }
          }
        }
      }
    }
  }
}
MOTION
Frames: 4
Frame Time: 0.00208333
48.5661 94.0798 15.074 0.691754 -5.77788 -0.709259 -0.196659 -2.86918 0.484022 -0.373224 -1.71806 0.982043 -0.384951 -0.073105 0.988236 -8.5114 28.8468 2.98408 10.0096 -18.0031 2.16003 23.0746 -14.0266 -10.8903 -37.1152 52.9053 131.231 -5.7227e-006 1.1393e-007 -3.17859e-006 6.42484 71.1547 -3.74332 -3.84349e-006 -8.68217e-006 -3.00463 8.02884 -4.95162 0.697779 -24.4224 -16.0802 13.2188 12.8931 53.1904 -95.1411 2.22639e-014 9.54166e-015 -6.36111e-015 8.11315 58.1347 -7.04685 -1.11553e-005 -5.32548e-006 3.00627 -8.02971 -4.95156 -0.697687 178.906 -2.09632 -0.0937383 180 7.01531e-015 178.857 178.743 12.4567 179.549 -2.92717e-006 -1.15251e-006 0.36653 -22.4378 71.971 23.5592 8.13649 25.2327 -3.48773 178.777 -10.3362 7.66103 4.54188e-006 -4.6773e-006 -1.13359 -4.30502 -0.901212 -0.022922 1.26754e-006 2.18775e-006 -0.0979705 22.7198 68.7707 -20.2852 -8.13649 25.2327 3.48774 
48.5689 94.0818 15.0798 0.696097 -5.79922 -0.712436 -0.198963 -2.86952 0.484346 -0.377693 -1.71826 0.982662 -0.389431 -0.0733061 0.988924 -8.45429 28.9336 2.96473 9.96297 -18.0448 2.14888 23.0576 -14.0302 -10.8961 -37.3589 52.9081 131.284 -5.7227e-006 1.1393e-007 -3.17859e-006 6.64592 71.4129 -3.94618 -3.84349e-006 -8.68217e-006 -3.00463 8.02884 -4.95162 0.697779 -24.4086 -16.0625 13.1994 13.0184 53.2849 -95.1175 3.18055e-015 3.97569e-015 -1.59028e-015 8.01968 58.4093 -6.98682 -1.11553e-005 -5.32548e-006 3.00627 -8.02971 -4.95156 -0.697687 178.897 -2.11739 -0.084109 180 7.01531e-015 178.857 178.74 12.4658 179.55 -2.92717e-006 -1.15251e-006 0.366599 -22.4451 71.9795 23.5679 8.13649 25.2327 -3.48773 178.776 -10.4065 7.65967 4.54188e-006 -4.6773e-006 -1.13086 -4.30758 -0.813589 -0.0210697 1.26754e-006 2.18775e-006 -0.0962817 22.6906 68.7345 -20.2497 -8.13649 25.2327 3.48774 
48.5709 94.0755 15.0768 0.700727 -5.81991 -0.715817 -0.201096 -2.8698 0.48473 -0.381773 -1.71862 0.983603 -0.393524 -0.0736648 0.989927 -8.40692 29.017 2.94839 9.92493 -18.0819 2.13899 23.0351 -14.0337 -10.9021 -37.5886 52.9147 131.319 -5.7227e-006 1.1393e-007 -3.17859e-006 6.85836 71.6586 -4.14356 -3.84349e-006 -8.68217e-006 -3.00463 8.02884 -4.95162 0.697779 -24.4008 -16.0435 13.1777 13.1384 53.3737 -95.0817 9.54166e-015 1.03368e-014 1.59028e-015 7.92408 58.7035 -6.92556 -1.11553e-005 -5.32548e-006 3.00627 -8.02971 -4.95156 -0.697687 178.888 -2.13661 -0.0745708 180 7.01531e-015 178.857 178.738 12.4767 179.55 -2.92717e-006 -1.15251e-006 0.366683 -22.4534 71.9884 23.5776 8.13649 25.2327 -3.48773 178.774 -10.472 7.65855 4.54188e-006 -4.6773e-006 -1.12841 -4.31022 -0.733937 -0.0193964 1.26754e-006 2.18775e-006 -0.0948105 22.6652 68.7018 -20.218 -8.13649 25.2327 3.48774 
48.5714 94.0764 15.0851 0.705713 -5.83991 -0.719372 -0.203177 -2.87016 0.48518 -0.385689 -1.71932 0.984853 -0.397455 -0.0743705 0.991236 -8.36517 29.0994 2.93376 9.89175 -18.1171 2.12981 23.0087 -14.0369 -10.9081 -37.8063 52.9245 131.335 -5.7227e-006 1.1393e-007 -3.17859e-006 7.06316 71.8939 -4.33693 -3.84349e-006 -8.68217e-006 -3.00463 8.02884 -4.95162 0.697779 -24.3975 -16.0228 13.1536 13.25 53.4579 -95.0308 2.54444e-014 1.19271e-014 -4.77083e-015 7.82527 59.0199 -6.86232 -1.11553e-005 -5.32548e-006 3.00627 -8.02971 -4.95156 -0.697687 178.878 -2.15421 -0.0649774 180 7.01531e-015 178.856 178.736 12.4888 179.551 -2.92717e-006 -1.15251e-006 0.366772 -22.462 71.9976 23.588 8.13649 25.2327 -3.48773 178.772 -10.5343 7.65777 4.54188e-006 -4.6773e-006 -1.12613 -4.31289 -0.658832 -0.0178183 1.26754e-006 2.18775e-006 -0.0934853 22.642 68.671 -20.1885 -8.13649 25.2327 3.48774 
